<?xml version="1.0" standalone="no"?>
<!DOCTYPE svg PUBLIC "-//W3C//DTD SVG 20010904//EN"
 "http://www.w3.org/TR/2001/REC-SVG-20010904/DTD/svg10.dtd">
<svg version="1.0" xmlns="http://www.w3.org/2000/svg"
 width="700.000000pt" height="700.000000pt" viewBox="0 0 700.000000 700.000000"
 preserveAspectRatio="xMidYMid meet">
<metadata>
Created by potrace 1.14, written by Peter Selinger 2001-2017
</metadata>
<g transform="translate(0.000000,700.000000) scale(0.100000,-0.100000)"
fill="#000000" stroke="none">
<path d="M3448 6675 c-1 -1 -39 -6 -84 -9 -44 -4 -92 -8 -105 -11 -13 -2 -44
-6 -69 -9 -25 -3 -56 -8 -70 -11 -14 -3 -52 -10 -85 -16 -187 -33 -506 -130
-682 -208 -412 -181 -727 -395 -1033 -701 -280 -279 -453 -515 -625 -855 -65
-128 -167 -359 -170 -385 -1 -3 -13 -41 -27 -85 -35 -103 -84 -288 -103 -390
-8 -44 -17 -91 -20 -105 -3 -14 -8 -52 -11 -85 -3 -33 -8 -63 -10 -66 -9 -16
-18 -206 -18 -389 0 -209 7 -331 24 -430 5 -30 11 -68 13 -85 20 -133 69 -338
113 -475 15 -47 28 -87 29 -90 1 -3 5 -14 10 -25 4 -11 21 -56 38 -100 183
-489 553 -1002 977 -1354 237 -198 572 -403 840 -516 25 -10 63 -26 85 -35
228 -96 502 -169 805 -214 89 -13 228 -21 375 -20 129 0 177 5 250 22 50 12
99 26 110 31 11 6 47 22 79 36 154 68 263 161 416 351 30 39 101 193 123 269
37 130 39 145 42 410 1 133 6 256 10 275 22 103 118 210 225 250 27 10 152 14
555 15 524 2 570 4 681 30 289 66 542 274 669 548 35 77 114 345 131 447 2 14
7 41 10 60 13 67 21 120 29 190 3 30 8 75 11 100 12 95 10 498 -2 620 -15 138
-20 175 -39 275 -3 17 -10 55 -16 85 -18 96 -69 281 -111 405 -303 892 -983
1622 -1858 1993 -208 88 -515 181 -690 208 -19 3 -60 9 -90 14 -30 5 -77 12
-105 15 -27 3 -66 8 -85 11 -39 6 -536 15 -542 9z m385 -1234 c143 -70 221
-234 181 -384 -39 -147 -155 -240 -317 -251 -40 -3 -137 23 -175 48 -56 36
-108 95 -134 151 -32 71 -32 200 0 268 42 88 116 154 205 183 64 21 182 14
240 -15z m-1199 -644 c69 -32 131 -94 165 -166 37 -79 37 -192 -1 -271 -53
-112 -161 -187 -280 -194 -226 -13 -398 194 -342 411 53 204 268 307 458 220z
m2299 9 c96 -29 187 -125 213 -226 58 -225 -118 -436 -349 -417 -83 7 -146 37
-204 95 -70 71 -105 160 -98 253 12 164 113 273 290 314 22 5 103 -5 148 -19z
m-3015 -1151 c48 -10 112 -49 154 -92 160 -167 110 -431 -102 -531 -136 -64
-314 -19 -401 101 -47 64 -61 105 -65 186 -5 120 46 224 142 288 82 54 173 70
272 48z"/>
</g>
</svg>
