<svg xmlns="http://www.w3.org/2000/svg"  viewBox="0 0 512 512"><path d="M204.8 256H128v-76.8h25.6v51.2h51.2v-25.6H256v25.6h-25.6v76.8h51.2v102.4h-51.2V384H256v-51.2h-51.2V384h-25.6v-76.8h25.6Zm-25.6 204.8h25.6v-51.2h-25.6ZM256 281.6h25.6V256H256ZM281.6 512v-76.8h-51.2v25.6H256v25.6h-76.8V512h102.4Zm25.6-102.4h25.6v-51.2h-25.6Zm-153.6-19.2V480a32 32 0 0 1-32 32H32a32 32 0 0 1-32-32v-89.6a32 32 0 0 1 32-32h89.6a32 32 0 0 1 32 32Zm-51.2 19.2H51.2v51.2h51.2Zm128-230.4h51.2v-25.6h-51.2ZM307.2 512h25.6v-25.6h-25.6Zm0-51.2h25.6v-25.6h-25.6Zm0-128h25.6v-25.6h-25.6Zm51.2 0H384V230.4h-25.6V256h-25.6v-25.6h-25.6v51.2h51.2Zm-25.6-230.4V51.2h-25.6v25.6h-76.8v25.6h102.4Zm0-102.4h-25.6v25.6h25.6ZM256 51.2V0h-76.8v51.2h25.6V25.6h25.6v25.6Zm128 128h-51.2V128h-25.6v76.8H384ZM0 121.6V32A32 32 0 0 1 32 0h89.6a32 32 0 0 1 32 32v89.6a32 32 0 0 1-32 32H32a32 32 0 0 1-32-32Zm51.2-19.2h51.2V51.2H51.2Zm0 179.2v-51.2h25.6v-25.6H25.6v-25.6H0v51.2h25.6V256H0v25.6h51.2ZM204.8 76.8h-25.6v102.4h25.6V128h25.6v-25.6h-25.6ZM102.4 307.2h38.4v-25.6h-64v25.6H0v25.6h102.4Zm0-128H76.8v25.6h25.6Zm384 102.4h-25.6V256h-25.6v25.6h-25.6v25.6H512V256h-25.6Zm0 102.4H512v-51.2h-25.6Zm-25.6-179.2h25.6v25.6H512v-51.2h-51.2Zm-25.6-25.6h-25.6v51.2h25.6ZM358.4 384H384v-25.6h-25.6Zm76.8 76.8V358.4h25.6v-25.6h-51.2v76.8h-51.2v25.6h51.2v25.6h-51.2V512H384v-25.6h25.6V512h51.2v-25.6h-25.6Zm51.2 51.2H512v-25.6h-25.6ZM512 32v89.6a32 32 0 0 1-32 32h-89.6a32 32 0 0 1-32-32V32a32 32 0 0 1 32-32H480a32 32 0 0 1 32 32Zm-51.2 19.2h-51.2v51.2h51.2Zm25.6 358.4h-25.6v51.2H512v-25.6h-25.6Z" style="fill:#000000"/></svg>
