<svg xmlns="http://www.w3.org/2000/svg" xml:space="preserve" version="1.0" viewBox="0 0 100 100"><svg xmlns="http://www.w3.org/2000/svg" xmlns:xlink="http://www.w3.org/1999/xlink" width="100" height="100" shape-rendering="crispEdges" viewBox="0 0 2000 2000"><path fill="#fff" d="M0 0h2000v2000H0z"/><path d="M815 223h74v74h-74zM889 223h74v74h-74zM963 223h74v74h-74zM1037 223h74v74h-74zM1111 223h74v74h-74zM815 297h74v74h-74zM889 297h74v74h-74zM1037 297h74v74h-74zM1111 297h74v74h-74zM889 371h74v74h-74zM963 371h74v74h-74zM1037 371h74v74h-74zM889 445h74v74h-74zM1037 445h74v74h-74zM1111 445h74v74h-74zM815 519h74v74h-74zM1111 519h74v74h-74zM815 593h74v74h-74zM963 593h74v74h-74zM815 667h74v74h-74zM963 667h74v74h-74zM1111 667h74v74h-74zM815 741h74v74h-74zM889 741h74v74h-74zM963 741h74v74h-74zM1037 741h74v74h-74zM223 815h74v74h-74zM297 815h74v74h-74zM371 815h74v74h-74zM593 815h74v74h-74zM667 815h74v74h-74zM815 815h74v74h-74zM889 815h74v74h-74zM963 815h74v74h-74zM1037 815h74v74h-74zM1111 815h74v74h-74zM1185 815h74v74h-74zM1259 815h74v74h-74zM1333 815h74v74h-74zM1407 815h74v74h-74zM1629 815h74v74h-74zM1703 815h74v74h-74zM223 889h74v74h-74zM371 889h74v74h-74zM519 889h74v74h-74zM593 889h74v74h-74zM741 889h74v74h-74zM815 889h74v74h-74zM1333 889h74v74h-74zM1481 889h74v74h-74zM1703 889h74v74h-74zM223 963h74v74h-74zM371 963h74v74h-74zM593 963h74v74h-74zM667 963h74v74h-74zM815 963h74v74h-74zM963 963h74v74h-74zM1185 963h74v74h-74zM1259 963h74v74h-74zM1407 963h74v74h-74zM1703 963h74v74h-74zM297 1037h74v74h-74zM445 1037h74v74h-74zM593 1037h74v74h-74zM963 1037h74v74h-74zM1111 1037h74v74h-74zM1407 1037h74v74h-74zM297 1111h74v74h-74zM371 1111h74v74h-74zM519 1111h74v74h-74zM593 1111h74v74h-74zM667 1111h74v74h-74zM741 1111h74v74h-74zM963 1111h74v74h-74zM1185 1111h74v74h-74zM1259 1111h74v74h-74zM1407 1111h74v74h-74zM1555 1111h74v74h-74zM1629 1111h74v74h-74zM1703 1111h74v74h-74zM815 1185h74v74h-74zM1037 1185h74v74h-74zM1185 1185h74v74h-74zM1259 1185h74v74h-74zM1481 1185h74v74h-74zM889 1259h74v74h-74zM963 1259h74v74h-74zM1037 1259h74v74h-74zM1111 1259h74v74h-74zM1185 1259h74v74h-74zM1407 1259h74v74h-74zM1703 1259h74v74h-74zM815 1333h74v74h-74zM889 1333h74v74h-74zM963 1333h74v74h-74zM1037 1333h74v74h-74zM1185 1333h74v74h-74zM1259 1333h74v74h-74zM1407 1333h74v74h-74zM1703 1333h74v74h-74zM889 1407h74v74h-74zM963 1407h74v74h-74zM1037 1407h74v74h-74zM1111 1407h74v74h-74zM1185 1407h74v74h-74zM1259 1407h74v74h-74zM1407 1407h74v74h-74zM1481 1407h74v74h-74zM1629 1407h74v74h-74zM963 1481h74v74h-74zM1333 1481h74v74h-74zM1407 1481h74v74h-74zM1481 1481h74v74h-74zM1629 1481h74v74h-74zM815 1555h74v74h-74zM1259 1555h74v74h-74zM1481 1555h74v74h-74zM1629 1555h74v74h-74zM1703 1555h74v74h-74zM815 1629h74v74h-74zM963 1629h74v74h-74zM1111 1629h74v74h-74zM1407 1629h74v74h-74zM1629 1629h74v74h-74zM1703 1629h74v74h-74zM815 1703h74v74h-74zM1259 1703h74v74h-74zM1407 1703h74v74h-74zM1703 1703h74v74h-74z"/><svg xml:space="preserve" width="518" height="518" x="223" y="223" shape-rendering="auto" viewBox="0 0 699.988 699.986"><path d="M600.99 0H1V699.986h699.988V0H600.99zm0 199.996v399.992H100.999V99.998H600.99v99.998z"/></svg><svg xml:space="preserve" width="518" height="518" x="223" y="223" shape-rendering="auto" version="1.0" viewBox="0 0 699.988 699.988"><path d="M399.994 199.997H199.998v299.994H499.99V199.997z"/></svg><svg xml:space="preserve" width="518" height="518" x="1259" y="223" shape-rendering="auto" viewBox="0 0 699.988 699.986"><path d="M600.99 0H1V699.986h699.988V0H600.99zm0 199.996v399.992H100.999V99.998H600.99v99.998z"/></svg><svg xml:space="preserve" width="518" height="518" x="1259" y="223" shape-rendering="auto" version="1.0" viewBox="0 0 699.988 699.988"><path d="M399.994 199.997H199.998v299.994H499.99V199.997z"/></svg><svg xml:space="preserve" width="518" height="518" x="223" y="1259" shape-rendering="auto" viewBox="0 0 699.988 699.986"><path d="M600.99 0H1V699.986h699.988V0H600.99zm0 199.996v399.992H100.999V99.998H600.99v99.998z"/></svg><svg xml:space="preserve" width="518" height="518" x="223" y="1259" shape-rendering="auto" version="1.0" viewBox="0 0 699.988 699.988"><path d="M399.994 199.997H199.998v299.994H499.99V199.997z"/></svg></svg></svg>